<svg width="17" height="12" viewBox="0 0 17 12" fill="none" xmlns="http://www.w3.org/2000/svg">
<path d="M0.753 1.884L8.75 5.882L16.747 1.884C16.7174 1.37444 16.4941 0.895488 16.1228 0.545227C15.7516 0.194965 15.2604 -9.35847e-05 14.75 3.36834e-08H2.75C2.23958 -9.35847e-05 1.74845 0.194965 1.37718 0.545227C1.00591 0.895488 0.782604 1.37444 0.753 1.884Z" fill="#9CA3AF"/>
<path d="M16.75 4.118L8.75 8.118L0.75 4.118V10C0.75 10.5304 0.960714 11.0391 1.33579 11.4142C1.71086 11.7893 2.21957 12 2.75 12H14.75C15.2804 12 15.7891 11.7893 16.1642 11.4142C16.5393 11.0391 16.75 10.5304 16.75 10V4.118Z" fill="#9CA3AF"/>
</svg>
