<svg width="17" height="16" viewBox="0 0 17 16" fill="none" xmlns="http://www.w3.org/2000/svg">
<path d="M0.25 1C0.25 0.447715 0.697715 0 1.25 0H3.40287C3.89171 0 4.3089 0.353413 4.38927 0.835601L5.12858 5.27147C5.20075 5.70451 4.98206 6.13397 4.5894 6.3303L3.04126 7.10437C4.15756 9.87832 6.37168 12.0924 9.14563 13.2087L9.9197 11.6606C10.116 11.2679 10.5455 11.0492 10.9785 11.1214L15.4144 11.8607C15.8966 11.9411 16.25 12.3583 16.25 12.8471V15C16.25 15.5523 15.8023 16 15.25 16H13.25C6.0703 16 0.25 10.1797 0.25 3V1Z" fill="#9CA3AF"/>
</svg>
